<svg xmlns="http://www.w3.org/2000/svg" viewBox="0 0 800 400">
  <defs>
    <linearGradient id="bg" x1="0%" y1="0%" x2="100%" y2="100%">
      <stop offset="0%" style="stop-color:#0a2647"/>
      <stop offset="100%" style="stop-color:#144272"/>
    </linearGradient>
  </defs>
  <rect width="800" height="400" fill="url(#bg)"/>
  <!-- Server/Rack -->
  <rect x="360" y="100" width="80" height="120" rx="6" fill="none" stroke="#00d4ff" stroke-width="2" opacity="0.7"/>
  <line x1="368" y1="120" x2="432" y2="120" stroke="#00d4ff" stroke-width="1" opacity="0.3"/>
  <line x1="368" y1="140" x2="432" y2="140" stroke="#00d4ff" stroke-width="1" opacity="0.3"/>
  <line x1="368" y1="160" x2="432" y2="160" stroke="#00d4ff" stroke-width="1" opacity="0.3"/>
  <line x1="368" y1="180" x2="432" y2="180" stroke="#00d4ff" stroke-width="1" opacity="0.3"/>
  <!-- LED dots -->
  <circle cx="375" cy="130" r="3" fill="#2ECC40" opacity="0.8"/>
  <circle cx="375" cy="150" r="3" fill="#2ECC40" opacity="0.8"/>
  <circle cx="375" cy="170" r="3" fill="#f39c12" opacity="0.8"/>
  <circle cx="375" cy="190" r="3" fill="#2ECC40" opacity="0.6"/>
  <!-- Monitor -->
  <rect x="270" y="140" width="55" height="40" rx="4" fill="none" stroke="#00d4ff" stroke-width="1.5" opacity="0.6"/>
  <text x="297" y="165" fill="#2ECC40" font-family="monospace" font-size="8" text-anchor="middle" opacity="0.8">$_</text>
  <line x1="297" y1="180" x2="297" y2="192" stroke="#00d4ff" stroke-width="1" opacity="0.3"/>
  <line x1="285" y1="192" x2="310" y2="192" stroke="#00d4ff" stroke-width="1" opacity="0.3"/>
  <!-- Network connections -->
  <rect x="475" y="120" width="55" height="40" rx="4" fill="none" stroke="#00d4ff" stroke-width="1.5" opacity="0.6"/>
  <text x="502" y="145" fill="#00d4ff" font-family="monospace" font-size="8" text-anchor="middle" opacity="0.7">VM</text>
  <rect x="475" y="175" width="55" height="40" rx="4" fill="none" stroke="#00d4ff" stroke-width="1.5" opacity="0.6"/>
  <text x="502" y="200" fill="#e74c3c" font-family="monospace" font-size="8" text-anchor="middle" opacity="0.7">Kali</text>
  <!-- Connection lines -->
  <line x1="440" y1="140" x2="475" y2="140" stroke="#00d4ff" stroke-width="1" opacity="0.3" stroke-dasharray="4,2"/>
  <line x1="440" y1="195" x2="475" y2="195" stroke="#00d4ff" stroke-width="1" opacity="0.3" stroke-dasharray="4,2"/>
  <line x1="325" y1="160" x2="360" y2="160" stroke="#00d4ff" stroke-width="1" opacity="0.3" stroke-dasharray="4,2"/>
  <!-- Tools icons -->
  <text x="290" y="250" fill="#00d4ff" font-family="monospace" font-size="10" opacity="0.4">Wireshark</text>
  <text x="380" y="250" fill="#2ECC40" font-family="monospace" font-size="10" opacity="0.4">Nmap</text>
  <text x="460" y="250" fill="#f39c12" font-family="monospace" font-size="10" opacity="0.4">Burp</text>
  <!-- Title -->
  <text x="400" y="330" fill="white" font-family="Inter,sans-serif" font-size="22" font-weight="700" text-anchor="middle">Home Lab Setup Guide</text>
  <text x="400" y="355" fill="#00d4ff" font-family="Inter,sans-serif" font-size="13" text-anchor="middle" opacity="0.8">Fox Lab • 2026</text>
</svg>