<svg xmlns="http://www.w3.org/2000/svg" viewBox="0 0 800 400">
  <defs>
    <linearGradient id="bg" x1="0%" y1="0%" x2="100%" y2="100%">
      <stop offset="0%" style="stop-color:#1a0a0a"/>
      <stop offset="100%" style="stop-color:#3d1010"/>
    </linearGradient>
  </defs>
  <rect width="800" height="400" fill="url(#bg)"/>
  <!-- Skull shape (stylized ransomware icon) -->
  <ellipse cx="400" cy="155" rx="60" ry="55" fill="none" stroke="#e74c3c" stroke-width="3" opacity="0.8"/>
  <rect x="375" y="195" width="50" height="15" rx="3" fill="none" stroke="#e74c3c" stroke-width="2" opacity="0.6"/>
  <!-- Eyes -->
  <ellipse cx="380" cy="145" rx="12" ry="14" fill="#e74c3c" opacity="0.7"/>
  <ellipse cx="420" cy="145" rx="12" ry="14" fill="#e74c3c" opacity="0.7"/>
  <!-- Lock overlay -->
  <rect x="388" y="165" width="24" height="18" rx="3" fill="#f39c12" opacity="0.9"/>
  <path d="M394 165 L394 157 Q400 149 406 157 L406 165" fill="none" stroke="#f39c12" stroke-width="2.5"/>
  <!-- Encrypted file icons -->
  <rect x="260" y="120" width="30" height="38" rx="3" fill="none" stroke="#e74c3c" stroke-width="1.5" opacity="0.4"/>
  <line x1="266" y1="130" x2="284" y2="130" stroke="#e74c3c" stroke-width="1" opacity="0.3"/>
  <line x1="266" y1="136" x2="280" y2="136" stroke="#e74c3c" stroke-width="1" opacity="0.3"/>
  <text x="275" y="152" fill="#e74c3c" font-family="monospace" font-size="8" text-anchor="middle" opacity="0.5">🔒</text>
  <rect x="510" y="120" width="30" height="38" rx="3" fill="none" stroke="#e74c3c" stroke-width="1.5" opacity="0.4"/>
  <line x1="516" y1="130" x2="534" y2="130" stroke="#e74c3c" stroke-width="1" opacity="0.3"/>
  <line x1="516" y1="136" x2="530" y2="136" stroke="#e74c3c" stroke-width="1" opacity="0.3"/>
  <text x="525" y="152" fill="#e74c3c" font-family="monospace" font-size="8" text-anchor="middle" opacity="0.5">🔒</text>
  <!-- Bitcoin symbol -->
  <circle cx="400" cy="240" r="15" fill="none" stroke="#f39c12" stroke-width="1.5" opacity="0.5"/>
  <text x="400" y="246" fill="#f39c12" font-family="sans-serif" font-size="16" font-weight="700" text-anchor="middle" opacity="0.6">₿</text>
  <!-- Binary backdrop -->
  <text x="180" y="100" fill="#e74c3c" font-family="monospace" font-size="10" opacity="0.15">01001000 01000101 01001100 01010000</text>
  <text x="350" y="280" fill="#e74c3c" font-family="monospace" font-size="10" opacity="0.15">ENCRYPTED</text>
  <!-- Title -->
  <text x="400" y="340" fill="white" font-family="Inter,sans-serif" font-size="22" font-weight="700" text-anchor="middle">Ransomware Defense</text>
  <text x="400" y="365" fill="#e74c3c" font-family="Inter,sans-serif" font-size="13" text-anchor="middle" opacity="0.8">Fox Lab • 2026</text>
</svg>