<svg xmlns="http://www.w3.org/2000/svg" viewBox="0 0 800 400">
  <defs>
    <linearGradient id="bg" x1="0%" y1="0%" x2="100%" y2="100%">
      <stop offset="0%" style="stop-color:#001f3f"/>
      <stop offset="100%" style="stop-color:#0074D9"/>
    </linearGradient>
  </defs>
  <rect width="800" height="400" fill="url(#bg)"/>
  <!-- Brain outline -->
  <ellipse cx="400" cy="180" rx="100" ry="90" fill="none" stroke="#00d4ff" stroke-width="3" opacity="0.8"/>
  <path d="M340 180 Q340 120 400 110 Q460 120 460 180" fill="none" stroke="#00d4ff" stroke-width="2" opacity="0.5"/>
  <!-- Neural network nodes -->
  <circle cx="370" cy="150" r="8" fill="#00d4ff" opacity="0.9"/>
  <circle cx="430" cy="150" r="8" fill="#00d4ff" opacity="0.9"/>
  <circle cx="400" cy="200" r="8" fill="#00d4ff" opacity="0.9"/>
  <circle cx="360" cy="195" r="6" fill="#0074D9" opacity="0.7"/>
  <circle cx="440" cy="195" r="6" fill="#0074D9" opacity="0.7"/>
  <circle cx="380" cy="170" r="5" fill="#2ECC40" opacity="0.6"/>
  <circle cx="420" cy="170" r="5" fill="#2ECC40" opacity="0.6"/>
  <!-- Connections -->
  <line x1="370" y1="150" x2="400" y2="200" stroke="#00d4ff" stroke-width="1.5" opacity="0.4"/>
  <line x1="430" y1="150" x2="400" y2="200" stroke="#00d4ff" stroke-width="1.5" opacity="0.4"/>
  <line x1="370" y1="150" x2="430" y2="150" stroke="#00d4ff" stroke-width="1.5" opacity="0.3"/>
  <line x1="360" y1="195" x2="440" y2="195" stroke="#0074D9" stroke-width="1" opacity="0.3"/>
  <!-- Shield -->
  <path d="M390 230 L400 225 L410 230 L410 250 Q400 260 390 250 Z" fill="#2ECC40" opacity="0.8"/>
  <!-- Binary/data streams -->
  <text x="250" y="140" fill="#00d4ff" font-family="monospace" font-size="11" opacity="0.3">01101001</text>
  <text x="500" y="160" fill="#00d4ff" font-family="monospace" font-size="11" opacity="0.3">10110100</text>
  <text x="280" y="240" fill="#00d4ff" font-family="monospace" font-size="11" opacity="0.2">11001010</text>
  <text x="470" y="220" fill="#00d4ff" font-family="monospace" font-size="11" opacity="0.2">01010111</text>
  <!-- Title -->
  <text x="400" y="340" fill="white" font-family="Inter,sans-serif" font-size="22" font-weight="700" text-anchor="middle">AI × Cybersecurity</text>
  <text x="400" y="365" fill="#00d4ff" font-family="Inter,sans-serif" font-size="13" text-anchor="middle" opacity="0.8">Fox Lab • 2026</text>
</svg>