<svg xmlns="http://www.w3.org/2000/svg" viewBox="0 0 800 400">
  <defs>
    <linearGradient id="bg" x1="0%" y1="0%" x2="100%" y2="100%">
      <stop offset="0%" style="stop-color:#001f3f"/>
      <stop offset="100%" style="stop-color:#205295"/>
    </linearGradient>
  </defs>
  <rect width="800" height="400" fill="url(#bg)"/>
  <!-- Key icon -->
  <circle cx="370" cy="155" r="30" fill="none" stroke="#f39c12" stroke-width="3" opacity="0.8"/>
  <circle cx="370" cy="155" r="12" fill="none" stroke="#f39c12" stroke-width="2" opacity="0.5"/>
  <line x1="400" y1="155" x2="470" y2="155" stroke="#f39c12" stroke-width="3" opacity="0.8"/>
  <line x1="450" y1="155" x2="450" y2="170" stroke="#f39c12" stroke-width="2" opacity="0.7"/>
  <line x1="462" y1="155" x2="462" y2="170" stroke="#f39c12" stroke-width="2" opacity="0.7"/>
  <!-- Password field -->
  <rect x="310" y="200" width="180" height="35" rx="6" fill="none" stroke="white" stroke-width="2" opacity="0.4"/>
  <circle cx="335" cy="218" r="5" fill="white" opacity="0.6"/>
  <circle cx="355" cy="218" r="5" fill="white" opacity="0.6"/>
  <circle cx="375" cy="218" r="5" fill="white" opacity="0.6"/>
  <circle cx="395" cy="218" r="5" fill="white" opacity="0.6"/>
  <circle cx="415" cy="218" r="5" fill="white" opacity="0.6"/>
  <circle cx="435" cy="218" r="5" fill="white" opacity="0.6"/>
  <circle cx="455" cy="218" r="5" fill="white" opacity="0.6"/>
  <circle cx="475" cy="218" r="5" fill="white" opacity="0.6"/>
  <!-- Strength bar -->
  <rect x="310" y="245" width="180" height="8" rx="4" fill="white" opacity="0.15"/>
  <rect x="310" y="245" width="50" height="8" rx="4" fill="#e74c3c" opacity="0.8"/>
  <!-- X marks for bad practices -->
  <text x="280" y="155" fill="#e74c3c" font-family="sans-serif" font-size="20" opacity="0.6">✗</text>
  <text x="510" y="218" fill="#e74c3c" font-family="sans-serif" font-size="20" opacity="0.6">✗</text>
  <!-- Check for good practices -->
  <text x="510" y="155" fill="#2ECC40" font-family="sans-serif" font-size="20" opacity="0.6">✓</text>
  <!-- Title -->
  <text x="400" y="330" fill="white" font-family="Inter,sans-serif" font-size="22" font-weight="700" text-anchor="middle">Password Security</text>
  <text x="400" y="355" fill="#f39c12" font-family="Inter,sans-serif" font-size="13" text-anchor="middle" opacity="0.8">Fox Lab • 2026</text>
</svg>