<svg xmlns="http://www.w3.org/2000/svg" viewBox="0 0 800 400">
  <defs>
    <linearGradient id="bg" x1="0%" y1="0%" x2="100%" y2="100%">
      <stop offset="0%" style="stop-color:#0a2647"/>
      <stop offset="100%" style="stop-color:#0074D9"/>
    </linearGradient>
  </defs>
  <rect width="800" height="400" fill="url(#bg)"/>
  <!-- Email envelope -->
  <rect x="320" y="110" width="160" height="110" rx="8" fill="none" stroke="white" stroke-width="2.5" opacity="0.7"/>
  <polyline points="320,110 400,175 480,110" fill="none" stroke="white" stroke-width="2.5" opacity="0.7"/>
  <!-- Phishing hook -->
  <path d="M400 90 L400 60 Q400 40 415 45 Q430 50 425 65 L420 75" fill="none" stroke="#e74c3c" stroke-width="3" opacity="0.8"/>
  <circle cx="400" cy="92" r="4" fill="#e74c3c" opacity="0.8"/>
  <!-- Warning signs -->
  <g transform="translate(270,140)" opacity="0.6">
    <polygon points="15,0 30,26 0,26" fill="none" stroke="#f39c12" stroke-width="2"/>
    <text x="15" y="22" fill="#f39c12" font-family="sans-serif" font-size="14" font-weight="700" text-anchor="middle">!</text>
  </g>
  <g transform="translate(500,140)" opacity="0.6">
    <polygon points="15,0 30,26 0,26" fill="none" stroke="#f39c12" stroke-width="2"/>
    <text x="15" y="22" fill="#f39c12" font-family="sans-serif" font-size="14" font-weight="700" text-anchor="middle">!</text>
  </g>
  <!-- Fake URL -->
  <rect x="330" y="235" width="140" height="22" rx="4" fill="white" opacity="0.15"/>
  <text x="400" y="250" fill="#e74c3c" font-family="monospace" font-size="9" text-anchor="middle" opacity="0.7">paypaI-verify.com</text>
  <!-- Shield defense -->
  <path d="M390 270 L400 265 L410 270 L410 290 Q400 300 390 290 Z" fill="#2ECC40" opacity="0.7"/>
  <text x="400" y="286" fill="white" font-family="sans-serif" font-size="10" font-weight="700" text-anchor="middle">✓</text>
  <!-- Title -->
  <text x="400" y="340" fill="white" font-family="Inter,sans-serif" font-size="22" font-weight="700" text-anchor="middle">Phishing Defense Guide</text>
  <text x="400" y="365" fill="#00d4ff" font-family="Inter,sans-serif" font-size="13" text-anchor="middle" opacity="0.8">Fox Lab • 2026</text>
</svg>