<svg xmlns="http://www.w3.org/2000/svg" viewBox="0 0 800 400">
  <defs>
    <linearGradient id="bg" x1="0%" y1="0%" x2="100%" y2="100%">
      <stop offset="0%" style="stop-color:#0a2647"/>
      <stop offset="100%" style="stop-color:#144272"/>
    </linearGradient>
  </defs>
  <rect width="800" height="400" fill="url(#bg)"/>
  <!-- Concentric circles (zero trust zones) -->
  <circle cx="400" cy="185" r="120" fill="none" stroke="#e74c3c" stroke-width="2" opacity="0.3" stroke-dasharray="8,4"/>
  <circle cx="400" cy="185" r="85" fill="none" stroke="#f39c12" stroke-width="2" opacity="0.4" stroke-dasharray="6,3"/>
  <circle cx="400" cy="185" r="50" fill="none" stroke="#2ECC40" stroke-width="2" opacity="0.5"/>
  <!-- Center lock -->
  <rect x="385" y="170" width="30" height="25" rx="4" fill="#2ECC40" opacity="0.9"/>
  <path d="M393 170 L393 158 Q400 148 407 158 L407 170" fill="none" stroke="#2ECC40" stroke-width="3"/>
  <circle cx="400" cy="182" r="3" fill="#0a2647"/>
  <!-- Verification checkpoints -->
  <circle cx="340" cy="140" r="10" fill="none" stroke="#f39c12" stroke-width="2"/>
  <text x="340" y="144" fill="#f39c12" font-family="sans-serif" font-size="12" text-anchor="middle">✓</text>
  <circle cx="460" cy="140" r="10" fill="none" stroke="#f39c12" stroke-width="2"/>
  <text x="460" y="144" fill="#f39c12" font-family="sans-serif" font-size="12" text-anchor="middle">✓</text>
  <circle cx="340" cy="230" r="10" fill="none" stroke="#f39c12" stroke-width="2"/>
  <text x="340" y="234" fill="#f39c12" font-family="sans-serif" font-size="12" text-anchor="middle">✓</text>
  <circle cx="460" cy="230" r="10" fill="none" stroke="#f39c12" stroke-width="2"/>
  <text x="460" y="234" fill="#f39c12" font-family="sans-serif" font-size="12" text-anchor="middle">✓</text>
  <!-- Outer nodes (users/devices) -->
  <rect x="268" y="100" width="16" height="12" rx="2" fill="#00d4ff" opacity="0.6"/>
  <rect x="516" y="100" width="16" height="12" rx="2" fill="#00d4ff" opacity="0.6"/>
  <circle cx="276" cy="252" r="8" fill="#00d4ff" opacity="0.6"/>
  <circle cx="524" cy="252" r="8" fill="#00d4ff" opacity="0.6"/>
  <!-- Connection lines -->
  <line x1="284" y1="106" x2="330" y2="140" stroke="#00d4ff" stroke-width="1" opacity="0.3" stroke-dasharray="4,2"/>
  <line x1="524" y1="106" x2="470" y2="140" stroke="#00d4ff" stroke-width="1" opacity="0.3" stroke-dasharray="4,2"/>
  <line x1="276" y1="244" x2="330" y2="230" stroke="#00d4ff" stroke-width="1" opacity="0.3" stroke-dasharray="4,2"/>
  <line x1="524" y1="244" x2="470" y2="230" stroke="#00d4ff" stroke-width="1" opacity="0.3" stroke-dasharray="4,2"/>
  <!-- Title -->
  <text x="400" y="340" fill="white" font-family="Inter,sans-serif" font-size="22" font-weight="700" text-anchor="middle">Zero Trust Architecture</text>
  <text x="400" y="365" fill="#00d4ff" font-family="Inter,sans-serif" font-size="13" text-anchor="middle" opacity="0.8">Fox Lab • 2026</text>
</svg>